<svg id="visual" viewBox="0 0 1920 48" width="1920" height="48" xmlns="http://www.w3.org/2000/svg" xmlns:xlink="http://www.w3.org/1999/xlink" version="1.1"><rect x="0" y="0" width="1920" height="48" fill="#001220"></rect><path d="M1489 48L1493.8 45.3C1498.7 42.7 1508.3 37.3 1515.8 32C1523.3 26.7 1528.7 21.3 1534.2 16C1539.7 10.7 1545.3 5.3 1548.2 2.7L1551 0L1920 0L1920 2.7C1920 5.3 1920 10.7 1920 16C1920 21.3 1920 26.7 1920 32C1920 37.3 1920 42.7 1920 45.3L1920 48Z" fill="#fa7268"></path><path d="M1534 48L1544.2 45.3C1554.3 42.7 1574.7 37.3 1577.3 32C1580 26.7 1565 21.3 1558.8 16C1552.7 10.7 1555.3 5.3 1556.7 2.7L1558 0L1920 0L1920 2.7C1920 5.3 1920 10.7 1920 16C1920 21.3 1920 26.7 1920 32C1920 37.3 1920 42.7 1920 45.3L1920 48Z" fill="#f66a67"></path><path d="M1561 48L1571.2 45.3C1581.3 42.7 1601.7 37.3 1599 32C1596.3 26.7 1570.7 21.3 1570.7 16C1570.7 10.7 1596.3 5.3 1609.2 2.7L1622 0L1920 0L1920 2.7C1920 5.3 1920 10.7 1920 16C1920 21.3 1920 26.7 1920 32C1920 37.3 1920 42.7 1920 45.3L1920 48Z" fill="#f16367"></path><path d="M1584 48L1586 45.3C1588 42.7 1592 37.3 1592.2 32C1592.3 26.7 1588.7 21.3 1593.5 16C1598.3 10.7 1611.7 5.3 1618.3 2.7L1625 0L1920 0L1920 2.7C1920 5.3 1920 10.7 1920 16C1920 21.3 1920 26.7 1920 32C1920 37.3 1920 42.7 1920 45.3L1920 48Z" fill="#ed5b67"></path><path d="M1662 48L1659 45.3C1656 42.7 1650 37.3 1648 32C1646 26.7 1648 21.3 1650.2 16C1652.3 10.7 1654.7 5.3 1655.8 2.7L1657 0L1920 0L1920 2.7C1920 5.3 1920 10.7 1920 16C1920 21.3 1920 26.7 1920 32C1920 37.3 1920 42.7 1920 45.3L1920 48Z" fill="#e85467"></path><path d="M1677 48L1683.3 45.3C1689.7 42.7 1702.3 37.3 1700.3 32C1698.3 26.7 1681.7 21.3 1674.7 16C1667.7 10.7 1670.3 5.3 1671.7 2.7L1673 0L1920 0L1920 2.7C1920 5.3 1920 10.7 1920 16C1920 21.3 1920 26.7 1920 32C1920 37.3 1920 42.7 1920 45.3L1920 48Z" fill="#e34c67"></path><path d="M1743 48L1736.2 45.3C1729.3 42.7 1715.7 37.3 1714.3 32C1713 26.7 1724 21.3 1730.2 16C1736.3 10.7 1737.7 5.3 1738.3 2.7L1739 0L1920 0L1920 2.7C1920 5.3 1920 10.7 1920 16C1920 21.3 1920 26.7 1920 32C1920 37.3 1920 42.7 1920 45.3L1920 48Z" fill="#de4467"></path><path d="M1771 48L1773 45.3C1775 42.7 1779 37.3 1775.8 32C1772.7 26.7 1762.3 21.3 1761.2 16C1760 10.7 1768 5.3 1772 2.7L1776 0L1920 0L1920 2.7C1920 5.3 1920 10.7 1920 16C1920 21.3 1920 26.7 1920 32C1920 37.3 1920 42.7 1920 45.3L1920 48Z" fill="#d83c67"></path><path d="M1787 48L1786.2 45.3C1785.3 42.7 1783.7 37.3 1783.2 32C1782.7 26.7 1783.3 21.3 1785.7 16C1788 10.7 1792 5.3 1794 2.7L1796 0L1920 0L1920 2.7C1920 5.3 1920 10.7 1920 16C1920 21.3 1920 26.7 1920 32C1920 37.3 1920 42.7 1920 45.3L1920 48Z" fill="#d23467"></path><path d="M1833 48L1831.8 45.3C1830.7 42.7 1828.3 37.3 1826.8 32C1825.3 26.7 1824.7 21.3 1828.3 16C1832 10.7 1840 5.3 1844 2.7L1848 0L1920 0L1920 2.7C1920 5.3 1920 10.7 1920 16C1920 21.3 1920 26.7 1920 32C1920 37.3 1920 42.7 1920 45.3L1920 48Z" fill="#cc2c68"></path><path d="M1879 48L1876.7 45.3C1874.3 42.7 1869.7 37.3 1869.3 32C1869 26.7 1873 21.3 1874.3 16C1875.7 10.7 1874.3 5.3 1873.7 2.7L1873 0L1920 0L1920 2.7C1920 5.3 1920 10.7 1920 16C1920 21.3 1920 26.7 1920 32C1920 37.3 1920 42.7 1920 45.3L1920 48Z" fill="#c62368"></path></svg>