<svg id="visual" viewBox="0 0 192 900" width="192" height="900" xmlns="http://www.w3.org/2000/svg" xmlns:xlink="http://www.w3.org/1999/xlink" version="1.1"><rect x="0" y="0" width="192" height="900" fill="#001220"></rect><path d="M67 0L66.3 10.7C65.7 21.3 64.3 42.7 64.5 64.2C64.7 85.7 66.3 107.3 66.8 128.8C67.3 150.3 66.7 171.7 66.3 193C66 214.3 66 235.7 66.2 257C66.3 278.3 66.7 299.7 66.5 321.2C66.3 342.7 65.7 364.3 66.2 385.8C66.7 407.3 68.3 428.7 67.7 450C67 471.3 64 492.7 62.3 514.2C60.7 535.7 60.3 557.3 61.8 578.8C63.3 600.3 66.7 621.7 67.7 643C68.7 664.3 67.3 685.7 66.2 707C65 728.3 64 749.7 63.7 771.2C63.3 792.7 63.7 814.3 63.3 835.8C63 857.3 62 878.7 61.5 889.3L61 900L0 900L0 889.3C0 878.7 0 857.3 0 835.8C0 814.3 0 792.7 0 771.2C0 749.7 0 728.3 0 707C0 685.7 0 664.3 0 643C0 621.7 0 600.3 0 578.8C0 557.3 0 535.7 0 514.2C0 492.7 0 471.3 0 450C0 428.7 0 407.3 0 385.8C0 364.3 0 342.7 0 321.2C0 299.7 0 278.3 0 257C0 235.7 0 214.3 0 193C0 171.7 0 150.3 0 128.8C0 107.3 0 85.7 0 64.2C0 42.7 0 21.3 0 10.7L0 0Z" fill="#fa7268"></path><path d="M56 0L55.7 10.7C55.3 21.3 54.7 42.7 54.8 64.2C55 85.7 56 107.3 55.8 128.8C55.7 150.3 54.3 171.7 53.7 193C53 214.3 53 235.7 52.2 257C51.3 278.3 49.7 299.7 49.5 321.2C49.3 342.7 50.7 364.3 51.5 385.8C52.3 407.3 52.7 428.7 52.2 450C51.7 471.3 50.3 492.7 50.2 514.2C50 535.7 51 557.3 52.2 578.8C53.3 600.3 54.7 621.7 54.7 643C54.7 664.3 53.3 685.7 53.3 707C53.3 728.3 54.7 749.7 55.5 771.2C56.3 792.7 56.7 814.3 56.2 835.8C55.7 857.3 54.3 878.7 53.7 889.3L53 900L0 900L0 889.3C0 878.7 0 857.3 0 835.8C0 814.3 0 792.7 0 771.2C0 749.7 0 728.3 0 707C0 685.7 0 664.3 0 643C0 621.7 0 600.3 0 578.8C0 557.3 0 535.7 0 514.2C0 492.7 0 471.3 0 450C0 428.7 0 407.3 0 385.8C0 364.3 0 342.7 0 321.2C0 299.7 0 278.3 0 257C0 235.7 0 214.3 0 193C0 171.7 0 150.3 0 128.8C0 107.3 0 85.7 0 64.2C0 42.7 0 21.3 0 10.7L0 0Z" fill="#ef5f67"></path><path d="M39 0L39.5 10.7C40 21.3 41 42.7 41.7 64.2C42.3 85.7 42.7 107.3 42.8 128.8C43 150.3 43 171.7 43.3 193C43.7 214.3 44.3 235.7 44.7 257C45 278.3 45 299.7 44.8 321.2C44.7 342.7 44.3 364.3 43.2 385.8C42 407.3 40 428.7 38.8 450C37.7 471.3 37.3 492.7 38.7 514.2C40 535.7 43 557.3 43.7 578.8C44.3 600.3 42.7 621.7 41.2 643C39.7 664.3 38.3 685.7 38.3 707C38.3 728.3 39.7 749.7 41.2 771.2C42.7 792.7 44.3 814.3 44.2 835.8C44 857.3 42 878.7 41 889.3L40 900L0 900L0 889.3C0 878.7 0 857.3 0 835.8C0 814.3 0 792.7 0 771.2C0 749.7 0 728.3 0 707C0 685.7 0 664.3 0 643C0 621.7 0 600.3 0 578.8C0 557.3 0 535.7 0 514.2C0 492.7 0 471.3 0 450C0 428.7 0 407.3 0 385.8C0 364.3 0 342.7 0 321.2C0 299.7 0 278.3 0 257C0 235.7 0 214.3 0 193C0 171.7 0 150.3 0 128.8C0 107.3 0 85.7 0 64.2C0 42.7 0 21.3 0 10.7L0 0Z" fill="#e34c67"></path><path d="M32 0L31.7 10.7C31.3 21.3 30.7 42.7 29.5 64.2C28.3 85.7 26.7 107.3 25.8 128.8C25 150.3 25 171.7 25.8 193C26.7 214.3 28.3 235.7 28.8 257C29.3 278.3 28.7 299.7 29.2 321.2C29.7 342.7 31.3 364.3 32 385.8C32.7 407.3 32.3 428.7 31.2 450C30 471.3 28 492.7 27.7 514.2C27.3 535.7 28.7 557.3 29.7 578.8C30.7 600.3 31.3 621.7 30.8 643C30.3 664.3 28.7 685.7 28.5 707C28.3 728.3 29.7 749.7 30.3 771.2C31 792.7 31 814.3 30.7 835.8C30.3 857.3 29.7 878.7 29.3 889.3L29 900L0 900L0 889.3C0 878.7 0 857.3 0 835.8C0 814.3 0 792.7 0 771.2C0 749.7 0 728.3 0 707C0 685.7 0 664.3 0 643C0 621.7 0 600.3 0 578.8C0 557.3 0 535.7 0 514.2C0 492.7 0 471.3 0 450C0 428.7 0 407.3 0 385.8C0 364.3 0 342.7 0 321.2C0 299.7 0 278.3 0 257C0 235.7 0 214.3 0 193C0 171.7 0 150.3 0 128.8C0 107.3 0 85.7 0 64.2C0 42.7 0 21.3 0 10.7L0 0Z" fill="#d53867"></path><path d="M18 0L18.3 10.7C18.7 21.3 19.3 42.7 19 64.2C18.7 85.7 17.3 107.3 16.7 128.8C16 150.3 16 171.7 16.7 193C17.3 214.3 18.7 235.7 19 257C19.3 278.3 18.7 299.7 18.7 321.2C18.7 342.7 19.3 364.3 19.2 385.8C19 407.3 18 428.7 17.5 450C17 471.3 17 492.7 17.3 514.2C17.7 535.7 18.3 557.3 18.7 578.8C19 600.3 19 621.7 19.2 643C19.3 664.3 19.7 685.7 19.3 707C19 728.3 18 749.7 17.8 771.2C17.7 792.7 18.3 814.3 18.3 835.8C18.3 857.3 17.7 878.7 17.3 889.3L17 900L0 900L0 889.3C0 878.7 0 857.3 0 835.8C0 814.3 0 792.7 0 771.2C0 749.7 0 728.3 0 707C0 685.7 0 664.3 0 643C0 621.7 0 600.3 0 578.8C0 557.3 0 535.7 0 514.2C0 492.7 0 471.3 0 450C0 428.7 0 407.3 0 385.8C0 364.3 0 342.7 0 321.2C0 299.7 0 278.3 0 257C0 235.7 0 214.3 0 193C0 171.7 0 150.3 0 128.8C0 107.3 0 85.7 0 64.2C0 42.7 0 21.3 0 10.7L0 0Z" fill="#c62368"></path></svg>